<mxfile host="65bd71144e">
    <diagram id="jzNEl9F9gEWAE3r8tWBQ" name="Page-1">
        <mxGraphModel dx="1356" dy="785" grid="1" gridSize="10" guides="1" tooltips="1" connect="1" arrows="1" fold="1" page="1" pageScale="1" pageWidth="850" pageHeight="1100" math="0" shadow="0">
            <root>
                <mxCell id="0"/>
                <mxCell id="1" parent="0"/>
                <mxCell id="7" value="getMockData" style="swimlane;fontStyle=1;align=center;verticalAlign=top;childLayout=stackLayout;horizontal=1;startSize=26;horizontalStack=0;resizeParent=1;resizeParentMax=0;resizeLast=0;collapsible=1;marginBottom=0;" vertex="1" parent="1">
                    <mxGeometry x="80" y="710" width="260" height="86" as="geometry"/>
                </mxCell>
                <mxCell id="8" value="+ response: Response" style="text;strokeColor=none;fillColor=none;align=left;verticalAlign=top;spacingLeft=4;spacingRight=4;overflow=hidden;rotatable=0;points=[[0,0.5],[1,0.5]];portConstraint=eastwest;" vertex="1" parent="7">
                    <mxGeometry y="26" width="260" height="26" as="geometry"/>
                </mxCell>
                <mxCell id="9" value="" style="line;strokeWidth=1;fillColor=none;align=left;verticalAlign=middle;spacingTop=-1;spacingLeft=3;spacingRight=3;rotatable=0;labelPosition=right;points=[];portConstraint=eastwest;strokeColor=inherit;" vertex="1" parent="7">
                    <mxGeometry y="52" width="260" height="8" as="geometry"/>
                </mxCell>
                <mxCell id="10" value="+ mockData(bos: MockDataOptions): response" style="text;strokeColor=none;fillColor=none;align=left;verticalAlign=top;spacingLeft=4;spacingRight=4;overflow=hidden;rotatable=0;points=[[0,0.5],[1,0.5]];portConstraint=eastwest;fontColor=default;labelBackgroundColor=none;" vertex="1" parent="7">
                    <mxGeometry y="60" width="260" height="26" as="geometry"/>
                </mxCell>
                <mxCell id="14" value="Use" style="endArrow=open;endSize=12;dashed=1;html=1;fontColor=default;" edge="1" parent="1">
                    <mxGeometry width="160" relative="1" as="geometry">
                        <mxPoint x="340" y="750" as="sourcePoint"/>
                        <mxPoint x="500" y="750" as="targetPoint"/>
                    </mxGeometry>
                </mxCell>
                <mxCell id="15" value="commonFn" style="swimlane;fontStyle=1;align=center;verticalAlign=top;childLayout=stackLayout;horizontal=1;startSize=26;horizontalStack=0;resizeParent=1;resizeParentMax=0;resizeLast=0;collapsible=1;marginBottom=0;labelBackgroundColor=none;fontColor=default;" vertex="1" parent="1">
                    <mxGeometry x="500" y="710" width="250" height="164" as="geometry"/>
                </mxCell>
                <mxCell id="17" value="" style="line;strokeWidth=1;fillColor=none;align=left;verticalAlign=middle;spacingTop=-1;spacingLeft=3;spacingRight=3;rotatable=0;labelPosition=right;points=[];portConstraint=eastwest;strokeColor=inherit;labelBackgroundColor=none;fontColor=default;" vertex="1" parent="15">
                    <mxGeometry y="26" width="250" height="8" as="geometry"/>
                </mxCell>
                <mxCell id="18" value="// 常用的随机生成方法&#10;genNatural(min, max): number&#10;genWord(min, max): string&#10;genInt(min, max):number&#10; genEmail(): string&#10; genUuId(): string&#10;// ..." style="text;strokeColor=none;fillColor=none;align=left;verticalAlign=top;spacingLeft=4;spacingRight=4;overflow=hidden;rotatable=0;points=[[0,0.5],[1,0.5]];portConstraint=eastwest;labelBackgroundColor=none;fontColor=default;" vertex="1" parent="15">
                    <mxGeometry y="34" width="250" height="130" as="geometry"/>
                </mxCell>
                <mxCell id="19" value="«interface»&lt;br&gt;&lt;div style=&quot;text-align: left;&quot;&gt;&lt;b style=&quot;background-color: initial;&quot;&gt;Response {&lt;/b&gt;&lt;/div&gt;&lt;div style=&quot;text-align: left; font-size: 11px;&quot;&gt;&lt;span style=&quot;font-size: 11px;&quot;&gt;&lt;b&gt;&amp;nbsp; &amp;nbsp;&lt;/b&gt; /&lt;/span&gt;&lt;font style=&quot;font-size: 11px;&quot;&gt;** 对象名称 */&lt;/font&gt;&lt;/div&gt;&lt;div style=&quot;text-align: left; font-size: 11px;&quot;&gt;&lt;font style=&quot;font-size: 11px;&quot;&gt;&amp;nbsp; &amp;nbsp; name: string;&lt;/font&gt;&lt;/div&gt;&lt;div style=&quot;text-align: left; font-size: 11px;&quot;&gt;&lt;font style=&quot;font-size: 11px;&quot;&gt;&amp;nbsp; &amp;nbsp; /** 属性信息 */&lt;/font&gt;&lt;/div&gt;&lt;div style=&quot;text-align: left; font-size: 11px;&quot;&gt;&lt;font style=&quot;font-size: 11px;&quot;&gt;&amp;nbsp; &amp;nbsp; properties: MockDataOptions[];&lt;/font&gt;&lt;/div&gt;&lt;div style=&quot;text-align: left; font-size: 11px;&quot;&gt;&lt;font style=&quot;font-size: 11px;&quot;&gt;&amp;nbsp; &amp;nbsp; /** 描述信息 */&lt;/font&gt;&lt;/div&gt;&lt;div style=&quot;text-align: left; font-size: 11px;&quot;&gt;&lt;font style=&quot;font-size: 11px;&quot;&gt;&amp;nbsp; &amp;nbsp; schema: SimpleSchema;&lt;/font&gt;&lt;/div&gt;&lt;div style=&quot;text-align: left; font-size: 11px;&quot;&gt;&lt;font style=&quot;font-size: 11px;&quot;&gt;&amp;nbsp; &amp;nbsp; /** 说明 */&lt;/font&gt;&lt;/div&gt;&lt;div style=&quot;text-align: left; font-size: 11px;&quot;&gt;&lt;font style=&quot;font-size: 11px;&quot;&gt;&amp;nbsp; &amp;nbsp; description: string;&lt;/font&gt;&lt;/div&gt;&lt;div style=&quot;text-align: left; font-size: 11px;&quot;&gt;&lt;font style=&quot;font-size: 11px;&quot;&gt;&amp;nbsp; &amp;nbsp; /** 枚举类型 */&lt;/font&gt;&lt;/div&gt;&lt;div style=&quot;text-align: left; font-size: 11px;&quot;&gt;&lt;font style=&quot;font-size: 11px;&quot;&gt;&amp;nbsp; &amp;nbsp; enums?: Array&amp;lt;string | number&lt;/font&gt;&lt;/div&gt;&lt;div style=&quot;font-weight: bold; text-align: left;&quot;&gt;&lt;b style=&quot;background-color: initial;&quot;&gt;}&lt;/b&gt;&lt;/div&gt;" style="html=1;labelBackgroundColor=none;fontColor=default;" vertex="1" parent="1">
                    <mxGeometry x="80" y="400" width="190" height="200" as="geometry"/>
                </mxCell>
                <mxCell id="20" value="«interface»&lt;br&gt;&lt;div style=&quot;text-align: left;&quot;&gt;&lt;span style=&quot;background-color: initial; font-size: 11px;&quot;&gt;&lt;b&gt;MockDataOptions&lt;/b&gt;&lt;/span&gt;&lt;b style=&quot;background-color: initial; text-align: left;&quot;&gt;{&lt;/b&gt;&lt;/div&gt;&lt;div style=&quot;text-align: left; font-size: 11px;&quot;&gt;&lt;b style=&quot;font-size: 11px;&quot;&gt;&lt;span style=&quot;font-size: 11px;&quot;&gt;&amp;nbsp; &amp;nbsp;&lt;/span&gt;&lt;/b&gt;&lt;span style=&quot;background-color: initial;&quot;&gt;&lt;font style=&quot;font-size: 11px;&quot;&gt;/** 属性名称 */&lt;/font&gt;&lt;/span&gt;&lt;/div&gt;&lt;div style=&quot;text-align: left; font-size: 11px;&quot;&gt;&lt;font style=&quot;font-size: 11px;&quot;&gt;&amp;nbsp; &amp;nbsp; name: string;&lt;/font&gt;&lt;/div&gt;&lt;div style=&quot;text-align: left; font-size: 11px;&quot;&gt;&lt;font style=&quot;font-size: 11px;&quot;&gt;&amp;nbsp; &amp;nbsp; /** 是否必填 */&lt;/font&gt;&lt;/div&gt;&lt;div style=&quot;text-align: left; font-size: 11px;&quot;&gt;&lt;font style=&quot;font-size: 11px;&quot;&gt;&amp;nbsp; &amp;nbsp; required: boolean;&lt;/font&gt;&lt;/div&gt;&lt;div style=&quot;text-align: left; font-size: 11px;&quot;&gt;&lt;font style=&quot;font-size: 11px;&quot;&gt;&amp;nbsp; &amp;nbsp; /** 描述信息 */&lt;/font&gt;&lt;/div&gt;&lt;div style=&quot;text-align: left; font-size: 11px;&quot;&gt;&lt;font style=&quot;font-size: 11px;&quot;&gt;&amp;nbsp; &amp;nbsp; schema: SimpleSchema;&lt;/font&gt;&lt;/div&gt;&lt;div style=&quot;text-align: left; font-size: 11px;&quot;&gt;&lt;font style=&quot;font-size: 11px;&quot;&gt;&amp;nbsp; &amp;nbsp; /** 说明 */&lt;/font&gt;&lt;/div&gt;&lt;div style=&quot;text-align: left; font-size: 11px;&quot;&gt;&lt;font style=&quot;font-size: 11px;&quot;&gt;&amp;nbsp; &amp;nbsp; description: string;&lt;/font&gt;&lt;/div&gt;&lt;div style=&quot;font-weight: bold; text-align: left;&quot;&gt;&lt;b style=&quot;background-color: initial;&quot;&gt;}&lt;/b&gt;&lt;/div&gt;" style="html=1;labelBackgroundColor=none;fontColor=default;" vertex="1" parent="1">
                    <mxGeometry x="360" y="160" width="180" height="200" as="geometry"/>
                </mxCell>
                <mxCell id="21" value="«interface»&lt;br&gt;&lt;div style=&quot;text-align: left;&quot;&gt;&lt;span style=&quot;font-size: 11px; background-color: initial;&quot;&gt;SimpleSchema&amp;nbsp;&lt;/span&gt;&lt;b style=&quot;background-color: initial;&quot;&gt;{&lt;/b&gt;&lt;/div&gt;&lt;div style=&quot;text-align: left; font-size: 11px;&quot;&gt;&lt;b style=&quot;font-size: 11px;&quot;&gt;&lt;span style=&quot;font-size: 11px;&quot;&gt;&amp;nbsp;&amp;nbsp;&lt;/span&gt;&lt;/b&gt;&lt;span style=&quot;background-color: initial;&quot;&gt;/** 类型 */&lt;/span&gt;&lt;/div&gt;&lt;div style=&quot;text-align: left; font-size: 11px;&quot;&gt;&amp;nbsp; &amp;nbsp; type: string;&lt;/div&gt;&lt;div style=&quot;text-align: left; font-size: 11px;&quot;&gt;&amp;nbsp; &amp;nbsp; /** 属性信息 */&lt;/div&gt;&lt;div style=&quot;text-align: left; font-size: 11px;&quot;&gt;&amp;nbsp; &amp;nbsp; properties: MockDataOptions[];&lt;/div&gt;&lt;div style=&quot;text-align: left; font-size: 11px;&quot;&gt;&amp;nbsp; &amp;nbsp; /** 针对泛型类，有深层次的描述 */&lt;/div&gt;&lt;div style=&quot;text-align: left; font-size: 11px;&quot;&gt;&amp;nbsp; &amp;nbsp; children?: SimpleSchema[];&lt;/div&gt;&lt;div style=&quot;text-align: left; font-size: 11px;&quot;&gt;&amp;nbsp; &amp;nbsp; /** 枚举类型 */&lt;/div&gt;&lt;div style=&quot;text-align: left; font-size: 11px;&quot;&gt;&amp;nbsp; &amp;nbsp; enums: Array&amp;lt;string | number&amp;gt;;&lt;/div&gt;&lt;div style=&quot;text-align: left; font-size: 11px;&quot;&gt;&amp;nbsp; &amp;nbsp; pattern?: RegExp;&lt;/div&gt;&lt;div style=&quot;text-align: left; font-size: 11px;&quot;&gt;&amp;nbsp; &amp;nbsp; max?: number,&lt;/div&gt;&lt;div style=&quot;text-align: left; font-size: 11px;&quot;&gt;&amp;nbsp; &amp;nbsp; min?: number,&lt;/div&gt;&lt;div style=&quot;font-weight: bold; text-align: left;&quot;&gt;&lt;b style=&quot;background-color: initial;&quot;&gt;}&lt;/b&gt;&lt;/div&gt;" style="html=1;labelBackgroundColor=none;fontColor=default;" vertex="1" parent="1">
                    <mxGeometry x="70" y="160" width="190" height="200" as="geometry"/>
                </mxCell>
                <mxCell id="22" value="Use" style="endArrow=open;endSize=12;dashed=1;html=1;fontColor=default;entryX=0.5;entryY=1;entryDx=0;entryDy=0;exitX=0.365;exitY=-0.005;exitDx=0;exitDy=0;exitPerimeter=0;" edge="1" parent="1" source="7" target="19">
                    <mxGeometry width="160" relative="1" as="geometry">
                        <mxPoint x="150" y="650" as="sourcePoint"/>
                        <mxPoint x="310" y="650" as="targetPoint"/>
                    </mxGeometry>
                </mxCell>
            </root>
        </mxGraphModel>
    </diagram>
</mxfile>